<svg xmlns="http://www.w3.org/2000/svg" viewBox="0 0 1594.03 426.1"><defs><style>.cls-1{fill:#fff;}</style></defs><g id="Layer_2" data-name="Layer 2"><g id="Layer_1-2" data-name="Layer 1"><path class="cls-1" d="M721.32,87.59h62.07V241.42l.63.32,43.25-65.88h68.34l-51.41,71.4,53.61,88.27H827L784,257l-.63.33v78.21H721.32Z"></path><path class="cls-1" d="M983.38,172.29c51.73,0,89,36.35,89,83.4s-37.3,83.41-89,83.41-89-36.35-89-83.41S931.66,172.29,983.38,172.29Zm0,113.26c16,0,27.59-13,27.59-29.86s-11.6-29.85-27.59-29.85-27.58,13-27.58,29.85S967.4,285.55,983.38,285.55Z"></path><path class="cls-1" d="M1096.23,175.86h60.82v17.2l.63.33c10-12,24.13-20.45,41.06-20.45a54.31,54.31,0,0,1,11.28,1.3V233.3a79.4,79.4,0,0,0-16.92-1.94c-13.17,0-24.45,3.24-34.8,13.3v90.87h-62.07Z"></path><path class="cls-1" d="M1232,87.59H1294v99.95l.63.33c9.72-7.46,24.76-15.58,43.26-15.58,16.93,0,31,6.49,39.81,15.25,10,10.06,15,24.34,15,47.71V335.53h-62.07V245c0-7.14-1.57-12.34-4.39-15.26-3.13-3.24-7.21-4.54-11.91-4.54a30.4,30.4,0,0,0-20.38,8.44v101.9H1232Z"></path><path class="cls-1" d="M1505,172.29c51.72,0,89,36.35,89,83.4s-37.31,83.41-89,83.41-89-36.35-89-83.41S1453.28,172.29,1505,172.29Zm0,113.26c16,0,27.59-13,27.59-29.86S1521,225.84,1505,225.84s-27.58,13-27.58,29.85S1489,285.55,1505,285.55Z"></path><path class="cls-1" d="M38.16,313.56l129.3-39.78a49.87,49.87,0,0,1,14.62-2.2c9.3,0,49.76,7.31,49.76,49.81,0,21.95-15.62,41.45-37,48l-57.75,17.77a19.89,19.89,0,1,0,11.7,38l59.62-18.35A89.21,89.21,0,0,0,267,349.23a78.94,78.94,0,0,0,133.93,24.18,79.13,79.13,0,0,0,59.67,27.47,77.27,77.27,0,0,0,26.58-4.73A260.79,260.79,0,0,0,524,262C524,117.31,406.73,0,262,0h-.38V280.79c-15.29-30.21-46.38-48.49-79.57-48.61V12.44A261.66,261.66,0,0,0,91.82,62.81l73.3,171.09a86.53,86.53,0,0,0-9.41,1.88L88.29,256.56l-53.56-125a262.73,262.73,0,0,0-24.37,203.6A49.1,49.1,0,0,1,38.16,313.56Zm382.61-71.81a39.79,39.79,0,0,1,79.57,0v79.57a39.79,39.79,0,0,1-79.57,0ZM301.42,202A39.79,39.79,0,1,1,381,202V321.32a39.79,39.79,0,0,1-79.57,0Z"></path></g></g></svg>